<svg id="Layer_1" data-name="Layer 1" xmlns="http://www.w3.org/2000/svg" viewBox="0 0 72 72"><defs><style>.cls-1{fill:#3d3d3d;}</style></defs><path class="cls-1" d="M43.5,30.66a6.52,6.52,0,0,1-1.77.48,3.06,3.06,0,0,0,1.36-1.68,6.36,6.36,0,0,1-2,.74,3.08,3.08,0,0,0-5.32,2.07,2.61,2.61,0,0,0,.08.69,8.79,8.79,0,0,1-6.35-3.17,3,3,0,0,0-.41,1.53,3,3,0,0,0,1.37,2.52,3.14,3.14,0,0,1-1.4-.38v0a3,3,0,0,0,2.47,3,3.1,3.1,0,0,1-.81.11,2.78,2.78,0,0,1-.58-.06,3.07,3.07,0,0,0,2.88,2.1,6.21,6.21,0,0,1-3.83,1.3,6,6,0,0,1-.73,0,8.8,8.8,0,0,0,4.72,1.36A8.62,8.62,0,0,0,42,32.62c0-.13,0-.26,0-.39A6,6,0,0,0,43.5,30.66Z"/></svg>