<svg id="Layer_1" data-name="Layer 1" xmlns="http://www.w3.org/2000/svg" viewBox="0 0 72 72"><defs><style>.cls-1{fill:#fff;}.cls-2{fill:none;stroke:#759f5b;stroke-linecap:round;stroke-linejoin:round;stroke-width:2px;}</style></defs><circle class="cls-1" cx="36.25" cy="36" r="33.5"/><path class="cls-2" d="M44.25,13a6.91,6.91,0,0,0-7,6.73,8.91,8.91,0,0,0,1,3.65l6,10.62,6-10.62a8.91,8.91,0,0,0,1-3.65A6.91,6.91,0,0,0,44.25,13Z"/><circle class="cls-2" cx="44.25" cy="20" r="3"/><path class="cls-2" d="M23.25,29a9.87,9.87,0,0,0-10,9.62,12.81,12.81,0,0,0,1.48,5.21L23.25,59l8.51-15.17a12.67,12.67,0,0,0,1.49-5.21A9.87,9.87,0,0,0,23.25,29Z"/><circle class="cls-2" cx="23.25" cy="39" r="4"/><path class="cls-2" d="M46.25,51h3a4,4,0,0,1,4,4h0a4,4,0,0,1-4,4h-21"/><path class="cls-2" d="M52.25,43h-11a4,4,0,0,0-4,4h0a4,4,0,0,0,4,4h5"/><path class="cls-2" d="M49.25,35h6a4,4,0,0,1,4,4h0a4,4,0,0,1-4,4h-5"/></svg>