<svg id="Layer_1" data-name="Layer 1" xmlns="http://www.w3.org/2000/svg" viewBox="0 0 72 72"><defs><style>.cls-1{fill:#fff;}.cls-2{fill:#759f5b;}</style></defs><circle class="cls-1" cx="35.97" cy="34.93" r="33.5"/><path class="cls-2" d="M62.36,50.14S48,51.06,45.72,44.92s-1.87-7.67-3.75-12-7.9-9.83-12-11a23.73,23.73,0,0,1-8-4,13.23,13.23,0,0,1-3.85-5.37,55,55,0,0,1,.23,10.79c-.21,1.49-1.19,10.3,1.15,15.36A17.56,17.56,0,0,0,25,45.93c.88.83,6.12,3.81,17.54,2.31C40.06,46.66,23.74,36.46,22.26,23c7.42,14.61,13,19.42,23.31,24.73S62.36,50.14,62.36,50.14Z"/></svg>