<svg id="Layer_1" data-name="Layer 1" xmlns="http://www.w3.org/2000/svg" viewBox="0 0 212.5 74.28"><defs><style>.cls-1{fill:#4d4d4f;}.cls-2{fill:#759f5b;}</style></defs><path class="cls-1" d="M40.82,44.74A16.38,16.38,0,0,0,49.23,39a16.17,16.17,0,0,0,3-9.83q0-7.95-5.4-12.5T31.87,12.08H13.27v49.7h5.25V46H31.87a36.65,36.65,0,0,0,4-.21l11.36,16H53Zm-9.09-3.2H18.52V16.62H31.73q7.38,0,11.29,3.23t3.9,9.27q0,5.89-3.9,9.15T31.73,41.54Z"/><path class="cls-1" d="M106.07,24a24.18,24.18,0,0,0-9.34-9A28.77,28.77,0,0,0,70,15,24.13,24.13,0,0,0,60.66,24a25.09,25.09,0,0,0-3.37,12.93,25.06,25.06,0,0,0,3.37,12.92,24.13,24.13,0,0,0,9.37,9,28.81,28.81,0,0,0,26.7,0,24.27,24.27,0,0,0,9.34-9.06,25,25,0,0,0,3.4-13A25.08,25.08,0,0,0,106.07,24Zm-4.55,23.5a19.21,19.21,0,0,1-7.45,7.38,21.37,21.37,0,0,1-10.65,2.67,21.61,21.61,0,0,1-10.69-2.67,19.39,19.39,0,0,1-7.52-7.38,20.58,20.58,0,0,1-2.74-10.54,20.62,20.62,0,0,1,2.74-10.55A19.39,19.39,0,0,1,72.73,19a21.6,21.6,0,0,1,10.69-2.66A21.37,21.37,0,0,1,94.07,19a19.21,19.21,0,0,1,7.45,7.38,20.89,20.89,0,0,1,2.7,10.55A20.86,20.86,0,0,1,101.52,47.47Z"/><path class="cls-1" d="M162.72,24a24.08,24.08,0,0,0-9.33-9,28.77,28.77,0,0,0-26.7,0A24.13,24.13,0,0,0,117.32,24,25.09,25.09,0,0,0,114,36.93a25.06,25.06,0,0,0,3.37,12.92,24.13,24.13,0,0,0,9.37,9,26.57,26.57,0,0,0,8,2.84,30,30,0,0,0,5.34.46,30.94,30.94,0,0,0,4.47-.32,26,26,0,0,0,8.88-2.94,24.18,24.18,0,0,0,9.33-9.06,24.93,24.93,0,0,0,3.41-13A25,25,0,0,0,162.72,24ZM140,57.52a22.87,22.87,0,0,1-3.54-.26,20.86,20.86,0,0,1-7.11-2.41,19.42,19.42,0,0,1-7.53-7.38,20.68,20.68,0,0,1-2.73-10.54,20.71,20.71,0,0,1,2.73-10.55A19.42,19.42,0,0,1,129.39,19a22.73,22.73,0,0,1,21.34,0,19.21,19.21,0,0,1,7.45,7.38,20.89,20.89,0,0,1,2.7,10.55,20.86,20.86,0,0,1-2.7,10.54,19.21,19.21,0,0,1-7.45,7.38A20.16,20.16,0,0,1,145,57,23.31,23.31,0,0,1,140,57.52Z"/><path class="cls-1" d="M166.49,12.08v4.54H184V61.78h5.26V16.62h17.46V12.08Z"/><path class="cls-2" d="M160.84,36.93a21,21,0,0,1-2.69,10.54,19.24,19.24,0,0,1-7.46,7.38A20.52,20.52,0,0,1,145,57a23.31,23.31,0,0,1-4.94.51,22.87,22.87,0,0,1-3.54-.26,20.65,20.65,0,0,1-7.15-2.41,19.39,19.39,0,0,1-7.52-7.38,20.68,20.68,0,0,1-2.73-10.54h-5.19a25.15,25.15,0,0,0,3.37,12.92,24.16,24.16,0,0,0,9.38,9,26.48,26.48,0,0,0,8,2.84,30,30,0,0,0,5.34.46,30.94,30.94,0,0,0,4.47-.32,26.2,26.2,0,0,0,8.84-2.94,24.2,24.2,0,0,0,9.34-9.06,25,25,0,0,0,3.41-13Z"/><path class="cls-2" d="M140,36.17a7,7,0,0,0-5.59,11.14l5.38,10.15,5.64-10a6.89,6.89,0,0,0,1.54-4.36A7,7,0,0,0,140,36.17Zm0,11.22a4.55,4.55,0,1,1,4.54-4.54A4.54,4.54,0,0,1,140,47.39Z"/></svg>