<svg id="Layer_1" data-name="Layer 1" xmlns="http://www.w3.org/2000/svg" viewBox="0 0 72 72"><defs><style>.cls-1{fill:#3d3d3d;}</style></defs><path class="cls-1" d="M36,33.39a3.34,3.34,0,1,0,3.6,3.33A3.47,3.47,0,0,0,36,33.39Zm0,5.5a2.17,2.17,0,1,1,2.34-2.17A2.25,2.25,0,0,1,36,38.89Z"/><path class="cls-1" d="M39.73,34.05a.78.78,0,1,0-.84-.78A.81.81,0,0,0,39.73,34.05Z"/><path class="cls-1" d="M42.63,32.48a3.5,3.5,0,0,0-2.05-1.9,5.43,5.43,0,0,0-1.7-.3c-.75,0-1,0-2.88,0s-2.14,0-2.89,0a5.37,5.37,0,0,0-1.69.3,3.47,3.47,0,0,0-2.05,1.9A4.5,4.5,0,0,0,29,34.05c0,.7,0,.92,0,2.68s0,2,0,2.67A4.56,4.56,0,0,0,29.37,41a3.47,3.47,0,0,0,2.05,1.9,5.69,5.69,0,0,0,1.7.32c.74,0,1,0,2.88,0s2.14,0,2.88,0a5.38,5.38,0,0,0,1.7-.3A3.47,3.47,0,0,0,42.63,41,4.5,4.5,0,0,0,43,39.43c0-.7,0-.92,0-2.68s0-2,0-2.67A4.4,4.4,0,0,0,42.63,32.48Zm-1,6.87a3.23,3.23,0,0,1-.24,1.22,2.28,2.28,0,0,1-1.33,1.23,4.08,4.08,0,0,1-1.3.22c-.74,0-1,0-2.84,0s-2.09,0-2.84,0a4.13,4.13,0,0,1-1.3-.22,2.25,2.25,0,0,1-1.33-1.23,3.4,3.4,0,0,1-.25-1.21c0-.68,0-.87,0-2.63s0-1.94,0-2.64a3.4,3.4,0,0,1,.25-1.21,2.24,2.24,0,0,1,1.33-1.24,4.43,4.43,0,0,1,1.3-.22c.74,0,.95,0,2.84,0s2.09,0,2.84,0a4.38,4.38,0,0,1,1.3.22,2.26,2.26,0,0,1,1.33,1.24,3.29,3.29,0,0,1,.24,1.2c0,.69,0,.88,0,2.64s0,1.94,0,2.63Z"/></svg>