<svg id="Layer_1" data-name="Layer 1" xmlns="http://www.w3.org/2000/svg" viewBox="0 0 72 72"><defs><style>.cls-1{fill:#4d4d4f;}.cls-2{fill:#759f5b;}</style></defs><path class="cls-1" d="M58.7,23.4a24.08,24.08,0,0,0-9.33-9,27.13,27.13,0,0,0-13.32-3.27,27.3,27.3,0,0,0-13.38,3.3,24.13,24.13,0,0,0-9.37,9A25.09,25.09,0,0,0,9.93,36.36,25.06,25.06,0,0,0,13.3,49.28a24.13,24.13,0,0,0,9.37,9,26.57,26.57,0,0,0,8,2.84,30,30,0,0,0,5.34.46,30.94,30.94,0,0,0,4.47-.32,26,26,0,0,0,8.88-2.94,24.18,24.18,0,0,0,9.33-9.06,24.93,24.93,0,0,0,3.41-13A25,25,0,0,0,58.7,23.4ZM36,57a22.87,22.87,0,0,1-3.54-.26,20.86,20.86,0,0,1-7.11-2.41,19.42,19.42,0,0,1-7.53-7.38,20.68,20.68,0,0,1-2.73-10.54,20.71,20.71,0,0,1,2.73-10.55,19.42,19.42,0,0,1,7.53-7.38,21.56,21.56,0,0,1,10.68-2.66,21.43,21.43,0,0,1,10.66,2.66,19.21,19.21,0,0,1,7.45,7.38,20.89,20.89,0,0,1,2.7,10.55,20.86,20.86,0,0,1-2.7,10.54,19.21,19.21,0,0,1-7.45,7.38A20.16,20.16,0,0,1,41,56.44,23.31,23.31,0,0,1,36,57Z"/><path class="cls-2" d="M56.82,36.36A21,21,0,0,1,54.13,46.9a19.24,19.24,0,0,1-7.46,7.38A20.52,20.52,0,0,1,41,56.44,23.31,23.31,0,0,1,36,57a22.87,22.87,0,0,1-3.54-.26,20.65,20.65,0,0,1-7.15-2.41,19.39,19.39,0,0,1-7.52-7.38,20.68,20.68,0,0,1-2.73-10.54H9.89a25.15,25.15,0,0,0,3.37,12.92,24.16,24.16,0,0,0,9.38,9,26.48,26.48,0,0,0,8,2.84,30,30,0,0,0,5.34.46,30.94,30.94,0,0,0,4.47-.32,26.2,26.2,0,0,0,8.84-2.94,24.2,24.2,0,0,0,9.34-9.06,25,25,0,0,0,3.41-13Z"/><path class="cls-2" d="M36,35.6a7,7,0,0,0-5.59,11.14l5.38,10.15,5.64-10a6.89,6.89,0,0,0,1.54-4.36A7,7,0,0,0,36,35.6Zm0,11.22a4.55,4.55,0,1,1,4.54-4.54A4.54,4.54,0,0,1,36,46.82Z"/></svg>