<svg id="Layer_1" data-name="Layer 1" xmlns="http://www.w3.org/2000/svg" viewBox="0 0 72 72"><defs><style>.cls-1{fill:#fff;}.cls-2{fill:none;stroke:#759f5b;stroke-linecap:round;stroke-linejoin:round;stroke-width:2px;}</style></defs><circle class="cls-1" cx="36" cy="36" r="33.5"/><path class="cls-2" d="M36,16a6.91,6.91,0,0,0-7,6.73,8.91,8.91,0,0,0,1,3.65L36,37l6-10.62a8.91,8.91,0,0,0,1-3.65A6.91,6.91,0,0,0,36,16Z"/><line class="cls-2" x1="47" y1="23" x2="50" y2="23"/><path class="cls-2" d="M13,51c0-2,2.22-4,4.5-4S22,49,22,51h0V19c0-2-2.22-4-4.5-4S13,17,13,19V51.58C13,55.92,16.24,57,18.42,57H53.58C55.76,57,59,55.92,59,51.58V19c0-2-2.22-4-4.5-4S50,17,50,19V51h0c0-2,2.21-4,4.49-4S59,49,59,51"/><line class="cls-2" x1="25" y1="23" x2="22" y2="23"/></svg>