<svg id="Layer_1" data-name="Layer 1" xmlns="http://www.w3.org/2000/svg" viewBox="0 0 72 72"><defs><style>.cls-1{fill:#3d3d3d;fill-rule:evenodd;}</style></defs><path class="cls-1" d="M36,27.52a4.61,4.61,0,1,0,4.6,4.61A4.6,4.6,0,0,0,36,27.52ZM36,29a3.11,3.11,0,1,1-3.11,3.11A3.09,3.09,0,0,1,36,29Zm-5.65-.56a.75.75,0,0,1,0,1.5,2.16,2.16,0,0,0,0,4.31.75.75,0,0,1,0,1.5,3.66,3.66,0,0,1,0-7.31ZM45.3,32.12a3.65,3.65,0,0,0-3.65-3.66.75.75,0,0,0,0,1.5,2.16,2.16,0,0,1,0,4.31.75.75,0,0,0,0,1.5A3.65,3.65,0,0,0,45.3,32.12Zm-.75,5.52A10.36,10.36,0,0,0,43,37.42a.75.75,0,0,0-.1,1.5,8,8,0,0,1,1.3.19c.67.13,1.1.34,1.2.57a.57.57,0,0,1,0,.54c-.1.22-.53.43-1.18.57a.75.75,0,0,0-.59.88.76.76,0,0,0,.89.59,2.87,2.87,0,0,0,2.24-1.4,2.17,2.17,0,0,0,0-1.83A2.88,2.88,0,0,0,44.55,37.64Zm-14.79.48a.76.76,0,0,0-.8-.7,11.05,11.05,0,0,0-1.53.22l-.21,0a2.69,2.69,0,0,0-2,1.34,2.17,2.17,0,0,0,0,1.83,2.9,2.9,0,0,0,2.24,1.4.76.76,0,0,0,.89-.59.75.75,0,0,0-.59-.88c-.65-.14-1.08-.35-1.18-.57a.57.57,0,0,1,0-.54c.1-.23.53-.44,1.17-.57l.34-.07a8.36,8.36,0,0,1,1-.12A.75.75,0,0,0,29.76,38.12Zm-.54,3.15C29.22,38.88,31.69,38,36,38h.3c4.12,0,6.47.88,6.47,3.2s-2.24,3.14-6.17,3.22H36C31.68,44.48,29.22,43.65,29.22,41.27Zm12.05,0c0-1.11-1.78-1.71-5.27-1.71s-5.28.61-5.28,1.73S32.5,43,36,43,41.27,42.37,41.27,41.25Z"/></svg>