<svg id="Layer_1" data-name="Layer 1" xmlns="http://www.w3.org/2000/svg" viewBox="0 0 72 72"><defs><style>.cls-1{fill:#fff;}.cls-2{fill:none;stroke:#769f5c;stroke-linecap:round;stroke-linejoin:round;stroke-width:2px;}</style></defs><circle class="cls-1" cx="36" cy="36" r="33.5"/><path class="cls-2" d="M51.25,41.82a3.2,3.2,0,0,0,.64,3.54l.12.11a3.89,3.89,0,1,1-5.5,5.5l-.11-.12a3.23,3.23,0,0,0-5.48,2.29v.33a3.88,3.88,0,1,1-7.76,0V53.3A3.36,3.36,0,0,0,27.53,51l-.12.11a3.89,3.89,0,0,1-5.5-5.49l.12-.12A3.23,3.23,0,0,0,19.74,40h-.33a3.89,3.89,0,0,1,0-7.77h.17a3.36,3.36,0,0,0,2.3-5.63l-.12-.11a3.89,3.89,0,0,1,2.75-6.64A3.85,3.85,0,0,1,27.25,21l.12.12a3.21,3.21,0,0,0,3.53.64h.16A3.22,3.22,0,0,0,33,18.86v-.33a3.89,3.89,0,1,1,7.77,0v.17A3.23,3.23,0,0,0,46.24,21l.12-.11a3.88,3.88,0,1,1,5.49,5.49l-.12.12A3.22,3.22,0,0,0,51.09,30v.16A3.23,3.23,0,0,0,54,32.12h.33a3.88,3.88,0,0,1,0,7.76h-.18A3.21,3.21,0,0,0,51.25,41.82Z"/><path class="cls-2" d="M36.88,41.82A5.82,5.82,0,1,0,31.06,36,5.82,5.82,0,0,0,36.88,41.82Z"/></svg>